<?xml version="1.0" encoding="UTF-8"?>
<svg xmlns="http://www.w3.org/2000/svg" xmlns:xlink="http://www.w3.org/1999/xlink" width="64px" height="64px" viewBox="0 0 64 64" version="1.1">
<g id="surface1">
<path style=" stroke:none;fill-rule:nonzero;fill:rgb(100%,72.156864%,60.392159%);fill-opacity:1;" d="M 55.363281 23.988281 L 49.710938 23.988281 C 50.480469 24.976562 50.945312 26.210938 50.945312 27.554688 L 50.945312 39.679688 C 50.945312 42.886719 48.320312 45.507812 45.117188 45.507812 L 30.882812 45.507812 C 31.636719 47.445312 33.519531 48.824219 35.71875 48.824219 L 55.363281 48.824219 C 58.210938 48.824219 60.550781 46.492188 60.550781 43.636719 L 60.550781 29.175781 C 60.542969 26.320312 58.210938 23.988281 55.363281 23.988281 Z M 55.363281 23.988281 "/>
<path style=" stroke:none;fill-rule:nonzero;fill:rgb(27.058825%,28.235295%,29.803923%);fill-opacity:1;" d="M 48.792969 36.398438 L 48.792969 17.894531 C 48.792969 13.257812 45 9.460938 40.363281 9.460938 L 12.386719 9.460938 C 7.75 9.460938 3.957031 13.257812 3.957031 17.894531 L 3.957031 36.398438 C 3.957031 40.804688 7.382812 44.445312 11.695312 44.800781 C 11.695312 44.800781 10.445312 54.511719 12 54.511719 C 13.554688 54.511719 23.773438 44.832031 23.773438 44.832031 L 40.355469 44.832031 C 45 44.832031 48.792969 41.039062 48.792969 36.398438 Z M 22.289062 41.082031 L 21.199219 42.105469 C 21.179688 42.125 19.042969 44.148438 16.625 46.300781 C 16.09375 46.769531 15.613281 47.195312 15.167969 47.582031 C 15.289062 46.273438 15.414062 45.292969 15.414062 45.28125 L 15.914062 41.386719 L 12 41.0625 C 9.59375 40.863281 7.707031 38.8125 7.707031 36.398438 L 7.707031 17.894531 C 7.707031 16.648438 8.195312 15.480469 9.085938 14.59375 C 9.976562 13.707031 11.148438 13.210938 12.386719 13.210938 L 40.363281 13.210938 C 41.605469 13.210938 42.773438 13.699219 43.664062 14.59375 C 44.550781 15.480469 45.042969 16.65625 45.042969 17.894531 L 45.042969 36.398438 C 45.042969 37.644531 44.554688 38.8125 43.664062 39.699219 C 42.773438 40.585938 41.601562 41.082031 40.363281 41.082031 Z M 22.289062 41.082031 "/>
<path style=" stroke:none;fill-rule:nonzero;fill:rgb(27.058825%,28.235295%,29.803923%);fill-opacity:1;" d="M 51.894531 21.117188 C 50.882812 20.914062 49.886719 21.5625 49.679688 22.574219 C 49.476562 23.585938 50.125 24.582031 51.136719 24.789062 C 53.574219 25.289062 55.34375 27.457031 55.34375 29.945312 L 55.34375 41.007812 C 55.34375 43.605469 53.398438 45.851562 50.824219 46.21875 L 48.78125 46.511719 L 49.269531 48.519531 C 49.394531 49.023438 49.511719 49.570312 49.632812 50.101562 C 48.53125 49.074219 47.300781 47.898438 46.179688 46.804688 L 45.636719 46.269531 L 35.15625 46.269531 C 33.789062 46.269531 32.867188 46.179688 32.207031 45.730469 C 31.351562 45.148438 30.179688 45.367188 29.601562 46.226562 C 29.019531 47.082031 29.238281 48.25 30.09375 48.832031 C 31.699219 49.925781 33.550781 50.019531 35.15625 50.019531 L 44.105469 50.019531 C 44.730469 50.625 45.8125 51.664062 46.917969 52.695312 C 47.929688 53.636719 48.769531 54.386719 49.40625 54.9375 C 50.65625 56 51.238281 56.382812 52.007812 56.382812 C 52.613281 56.382812 53.175781 56.105469 53.554688 55.625 C 54.1875 54.820312 54.195312 53.804688 53.585938 50.707031 C 53.5 50.257812 53.40625 49.820312 53.320312 49.417969 C 56.71875 48.101562 59.09375 44.773438 59.09375 41.007812 L 59.09375 29.945312 C 59.101562 25.695312 56.070312 21.980469 51.894531 21.117188 Z M 51.894531 21.117188 "/>
<path style=" stroke:none;fill-rule:nonzero;fill:rgb(20%,80.000001%,60.000002%);fill-opacity:1;" d="M 27.164062 37.675781 C 24.917969 37.675781 22.726562 36.605469 20.988281 34.667969 C 19.449219 32.949219 18.53125 30.820312 18.53125 28.957031 L 18.53125 27.101562 L 20.386719 27.082031 C 20.414062 27.082031 22.648438 27.054688 26.351562 27.054688 C 27.386719 27.054688 28.226562 27.894531 28.226562 28.929688 C 28.226562 29.96875 27.386719 30.804688 26.351562 30.804688 C 24.957031 30.804688 23.773438 30.8125 22.835938 30.8125 C 23.074219 31.257812 23.386719 31.71875 23.78125 32.164062 C 24.78125 33.28125 26.011719 33.917969 27.164062 33.917969 C 28.3125 33.917969 29.542969 33.273438 30.542969 32.164062 C 30.949219 31.707031 31.269531 31.230469 31.507812 30.773438 C 30.648438 30.601562 30 29.835938 30.007812 28.929688 C 30.011719 27.898438 30.851562 27.0625 31.882812 27.0625 L 31.886719 27.0625 C 33.582031 27.070312 33.917969 27.074219 33.988281 27.082031 L 35.792969 27.148438 L 35.792969 28.957031 C 35.792969 30.820312 34.875 32.949219 33.335938 34.667969 C 31.59375 36.605469 29.40625 37.675781 27.164062 37.675781 Z M 33.855469 30.832031 Z M 33.855469 30.832031 "/>
</g>
</svg>
